<?xml version="1.0" encoding="utf-8"?>
<!-- Generator: Adobe Illustrator 25.0.1, SVG Export Plug-In . SVG Version: 6.00 Build 0)  -->
<svg version="1.0" id="layer" xmlns="http://www.w3.org/2000/svg" xmlns:xlink="http://www.w3.org/1999/xlink" x="0px" y="0px"
	 viewBox="0 0 740 554" style="enable-background:new 0 0 740 554;" xml:space="preserve">
<style type="text/css">
	.st0{fill:#FF2636;}
	.st1{fill:#FFFFFE;}
	.st2{fill:#686968;}
</style>
<path class="st0" d="M164,222.8v-4.2c0-3-2.4-5.5-5.5-5.5l0,0h-13.8c-3,0-5.5,2.5-5.5,5.5l0,0v3H83.1c-7.2,0-17.9,4.8-17.9,17.9
	v73.9c0,7.2,4.8,17.9,17.9,17.9H157c7.2,0,17.9-4.8,17.9-17.9v-73.9C174.9,233.7,171.9,225.8,164,222.8"/>
<path class="st1" d="M155.2,273.1h-9c-1.8,0-3.3,1.5-3.3,3.3s1.5,3.3,3.3,3.3l0,0h9c1.8,0.1,3.3-1.4,3.4-3.2
	c0.1-1.8-1.4-3.3-3.2-3.4C155.3,273.1,155.3,273.1,155.2,273.1 M140.9,267.2c0.7,1.7,2.7,2.4,4.3,1.7l8.3-3.7
	c1.7-0.7,2.4-2.6,1.7-4.3s-2.6-2.4-4.3-1.7h-0.1l-8.3,3.7C140.9,263.6,140.2,265.5,140.9,267.2 M139.9,259.2l6.1-6.7
	c1.2-1.3,1.1-3.4-0.2-4.6c-1.3-1.2-3.4-1.1-4.6,0.2l-6.1,6.7c-1.2,1.3-1.1,3.4,0.2,4.6l0,0C136.7,260.7,138.7,260.6,139.9,259.2
	L139.9,259.2 M131.2,300.2c-0.6-1.7-2.4-2.7-4.1-2.1l0,0c-2.2,0.7-4.6,1.1-7,1.1c-12.6,0-22.8-10.2-22.8-22.8
	c0-12.6,10.2-22.8,22.8-22.8c2.4,0,4.8,0.4,7,1.1c1.7,0.6,3.6-0.4,4.1-2.1l2.8-8.6c0.6-1.7-0.4-3.6-2.1-4.1l0,0
	c-3.8-1.2-7.8-1.9-11.9-1.9c-21.2,0-38.4,17.2-38.4,38.4c0,21.2,17.2,38.4,38.4,38.4c4.1,0,8.1-0.7,11.9-1.9l0,0
	c1.7-0.6,2.7-2.4,2.1-4.1L131.2,300.2 M139.9,293.6c-1.2-1.3-3.3-1.4-4.6-0.1c-1.3,1.2-1.4,3.2-0.2,4.5l6.1,6.7
	c1.2,1.3,3.3,1.4,4.6,0.1c1.3-1.2,1.4-3.2,0.2-4.5L139.9,293.6 M153.5,287.7l-8.3-3.7c-1.7-0.7-3.6,0.1-4.3,1.8
	c-0.7,1.6,0,3.5,1.6,4.2l8.3,3.7c1.7,0.7,3.6-0.1,4.3-1.8C155.8,290.3,155.1,288.5,153.5,287.7"/>
<path class="st2" d="M654.7,309.3c-2.5,0-4.5-1.9-4.5-4.2v-79.5c0-2.4,1.9-4.2,4.5-4.2h6.1c2.5,0,4.5,1.9,4.5,4.2v79.5
	c0,2.3-2.1,4.2-4.5,4.2H654.7 M396.2,257.1c-5.2,0-9.7,1.8-13.3,5.5c-3.5,3.5-5.3,8-5.3,13.3s1.8,9.8,5.3,13.3
	c3.6,3.6,8.1,5.5,13.3,5.5c5.1,0,9.6-1.8,13.2-5.5c3.6-3.6,5.5-8.1,5.5-13.3c0-5.2-1.8-9.7-5.5-13.3
	C405.8,259,401.3,257.1,396.2,257.1z M396.2,309.4c-9.4,0-17.4-3.3-24-9.7c-6.4-6.4-9.7-14.4-9.7-23.7c0-9.4,3.3-17.3,9.7-23.6
	c6.6-6.4,14.6-9.7,24-9.7c9.4,0,17.4,3.3,23.9,9.7c6.5,6.2,9.8,14.2,9.8,23.6c0,9.5-3.2,17.3-9.8,23.7
	C413.6,306.1,405.6,309.4,396.2,309.4z M464.7,309.4c-7.7,0-14-2.5-18.9-7.3c-5-5-7.5-11.4-7.5-19.2v-33.6c0-2.6,1.9-4.5,4.5-4.5
	h6.1c2.5,0,4.5,2,4.5,4.5v33.9c0,6.9,4.6,11.5,11.4,11.5c6.9,0,11.5-4.6,11.5-11.5v-33.9c0-2.6,1.9-4.5,4.5-4.5h6.1
	c2.5,0,4.5,2,4.5,4.5v33.6c0,7.8-2.5,14.2-7.5,19.2C478.8,306.9,472.4,309.4,464.7,309.4 M520.7,309.4c-8,0-14.9-2.8-20.3-8.2
	c-2.2-2.2-2.3-4.6-0.3-6.9l1.4-1.5c1.2-1.4,2.5-2.1,3.9-2.1c1.2,0,2.3,0.5,3.5,1.5c3.9,3.2,7.8,4.8,11.6,4.8c4.5,0,7.2-2.5,7.2-6.4
	c0-3.7-2.6-6-10.5-9.5c-11.6-4.7-17.5-11.5-17.5-20.1c0-10.6,9-18.3,21.4-18.3c5.9,0,11.1,1.5,15.9,4.5c1.2,0.8,1.9,1.9,2.1,3.2
	c0.2,1.4-0.2,2.9-1.1,4.1l-1.2,1.7c-1.1,1.5-2.4,2.3-3.9,2.3c-0.9,0-1.8-0.3-2.8-0.9c-3-1.8-5.8-2.7-8.4-2.7c-4.8,0-7.5,2-7.5,5.6
	c0,3.2,3.2,6,9.7,8.7c12.8,5.5,18.3,11.7,18.3,20.7c0,5.6-2.1,10.3-6.1,14C532.1,307.6,527.1,309.4,520.7,309.4 M627.1,309.3
	c-2.5,0-4.5-1.9-4.5-4.2v-79.5c0-2.4,1.9-4.2,4.5-4.2h6.1c2.5,0,4.5,1.9,4.5,4.2v79.5c0,2.3-2,4.2-4.5,4.2H627.1 M362.2,245.8
	c-0.1-0.1-0.3-0.1-0.5-0.2c-2.2-1.2-4.7-1.8-7.4-1.8c-5.5,0-10.1,2.6-13.7,7.7c0,0-1,1.2-1,0v-2.6c0-1-0.4-1.9-1.2-2.7
	c-0.8-0.8-1.7-1.2-2.7-1.2h-7.1c-1,0-1.9,0.4-2.7,1.1c-0.8,0.7-1.2,1.6-1.2,2.6v56.7c0,1.1,0.4,2,1.2,2.8c0.8,0.7,1.7,1.1,2.7,1.1
	h7.3c1,0,2-0.3,2.7-1c0.8-0.8,1.2-1.7,1.2-2.9v-28.8c0-5.8,1.2-10.4,3.7-13.9s5.5-5.2,9-5.2c0.9,0,1.8,0.1,2.8,0.4
	c1.2,0.3,2.5-0.3,3.1-1.4l4.3-8.2C363.6,247.4,363.2,246.2,362.2,245.8 M262.3,276c0,5.3,1.8,9.7,5.3,13.2c3.6,3.6,8.1,5.4,13.3,5.4
	c5.1,0,9.5-1.8,13.2-5.4c3.6-3.6,5.4-8,5.4-13.2c0-5.3-1.8-9.7-5.4-13.4c-3.6-3.6-8-5.4-13.2-5.4c-5.2,0-9.7,1.8-13.3,5.4
	C264.1,266.2,262.3,270.7,262.3,276h-0.7H262.3L262.3,276z M278.8,309.4c-8.9,0-16.5-3.3-22.5-9.7c-6-6.5-9.1-14.4-9.1-23.6
	c0-9.4,3.3-17.4,9.7-23.7c6.6-6.4,14.6-9.7,24-9.7c9.4,0,17.4,3.3,23.9,9.7c6.5,6.2,9.8,14.2,9.8,23.6v28.9c0,2.4-2.1,4.5-4.5,4.5
	H305c-2.6,0-4.4-1.7-4.4-4.6l-0.2-5.4c0-0.1-0.1-0.4-0.4-0.4c-0.2,0-0.5,0.1-0.8,0.5C294.4,306,287.5,309.4,278.8,309.4L278.8,309.4
	z M581.3,255.8c-7.9,0-13.5,3.7-16.5,10.9c-0.1,0.2-0.1,0.4,0,0.5c0.1,0.2,0.3,0.3,0.6,0.3h31.8c0.4,0,0.6-0.1,0.6-0.1
	c0-0.1,0.1-0.3-0.1-0.7C594.7,259.3,589.3,255.8,581.3,255.8z M581.7,309.4c-9.4,0-17.4-3.3-24-9.7c-6.4-6.4-9.7-14.4-9.7-23.7
	c0-9.3,3.2-17.2,9.6-23.6c6.4-6.4,14.4-9.7,23.7-9.7c9.3,0,17.2,3.1,23.3,9.3c6.2,6.1,9.4,13.6,9.4,22.3c0,2.7-2.1,4.6-5,4.6h-45
	c-0.2,0-0.4,0-0.5,0.1s-0.1,0.4-0.1,0.8c0.7,4.2,2.6,7.8,6,10.9c3.4,2.9,7.6,4.4,12.3,4.4c5.8,0,10.6-2.2,14.6-6.7
	c1.1-1.3,2.5-2,4-2c0.9,0,1.9,0.3,2.9,0.8l3.8,1.8c1.5,0.7,2.5,1.9,2.7,3.2c0.2,1.2-0.1,2.4-1,3.4
	C602.2,304.7,593,309.4,581.7,309.4z M241.9,306.9L241.9,306.9L241.9,306.9z M227.3,308.2c0.2,0,0.5,0.1,0.7,0.1
	C227.8,308.3,227.5,308.2,227.3,308.2z M226,308c0.1,0,0.2,0,0.3,0.1C226.2,308.1,226.1,308.1,226,308z M231.4,308.5
	c-0.2,0-0.3,0-0.5,0C231.1,308.5,231.3,308.5,231.4,308.5L231.4,308.5z M234.4,243.7c-0.1,0-0.2,0-0.3,0
	C234.2,243.7,234.3,243.7,234.4,243.7z M238.6,294.2c-0.1,0-0.1,0-0.2,0C238.4,294.2,238.5,294.2,238.6,294.2
	C238.5,294.2,238.6,294.2,238.6,294.2z M244.5,303.1l-2.5-7.3c-0.5-1.5-1.9-2.5-3.5-2.5c-0.4,0-0.8,0.1-1.2,0.2
	c-1.9,0.6-3.9,0.9-5.9,0.9c-5.1,0-10-1.9-13.6-5.4c-3.6-3.5-5.6-8.1-5.6-13c0-10.2,8.6-18.5,19.2-18.5c2,0,4,0.3,5.9,0.9
	c0.4,0.1,0.8,0.2,1.1,0.2c1.6,0,3-1,3.5-2.5l2.5-7.3c0.3-0.9,0.2-1.9-0.2-2.7c-0.4-0.9-1.2-1.5-2.2-1.8c-3.4-1.1-7-1.6-10.7-1.6
	c-19,0-34.5,14.9-34.5,33.3c0,18.3,15.5,33.3,34.5,33.3c3.6,0,7.2-0.6,10.7-1.6c0.9-0.3,1.7-0.9,2.1-1.8
	C244.7,305,244.8,304,244.5,303.1L244.5,303.1z"/>
</svg>
